<?xml version="1.0" standalone="no"?>
<!DOCTYPE svg PUBLIC "-//W3C//DTD SVG 20010904//EN"
 "http://www.w3.org/TR/2001/REC-SVG-20010904/DTD/svg10.dtd">
<svg version="1.0" xmlns="http://www.w3.org/2000/svg"
 width="700.000000pt" height="700.000000pt" viewBox="0 0 700.000000 700.000000"
 preserveAspectRatio="xMidYMid meet">
<metadata>
Created by potrace 1.14, written by Peter Selinger 2001-2017
</metadata>
<g transform="translate(0.000000,700.000000) scale(0.100000,-0.100000)"
fill="#000000" stroke="none">
<path d="M3205 6869 c-612 -47 -1305 -323 -1793 -714 -644 -517 -1061 -1202
-1228 -2015 -33 -161 -37 -194 -43 -410 -10 -368 1 -648 32 -810 156 -815 559
-1496 1202 -2031 427 -355 1007 -619 1555 -708 337 -54 732 -58 1075 -10 557
78 1136 331 1590 695 219 176 489 459 646 677 155 216 330 544 422 792 91 244
165 548 188 767 17 159 6 803 -15 935 -86 531 -339 1109 -675 1541 -89 115
-353 387 -487 502 -378 325 -939 610 -1407 714 -314 70 -734 100 -1062 75z
m647 -393 c415 -66 887 -276 1214 -540 171 -138 334 -335 404 -490 33 -72 72
-216 91 -341 19 -120 17 -463 -5 -610 -23 -157 -45 -245 -62 -245 -20 0 -176
58 -384 143 -590 239 -1044 468 -1501 753 -401 251 -1216 838 -1236 891 -8 21
56 78 192 172 233 160 447 246 695 281 96 13 478 4 592 -14z m-1547 -604 c33
-26 264 -211 514 -411 393 -316 452 -367 446 -385 -13 -42 -18 -511 -6 -612
33 -281 175 -506 385 -609 118 -58 188 -75 307 -75 257 0 506 165 705 467 30
46 61 83 68 83 20 0 730 -240 740 -250 12 -12 -44 -179 -133 -403 -141 -352
-215 -496 -425 -821 -246 -381 -326 -535 -326 -626 0 -58 23 -52 96 26 75 81
71 90 84 -176 15 -279 34 -444 81 -691 20 -108 12 -113 -124 -80 -80 20 -107
19 -107 -4 0 -20 35 -183 79 -370 23 -93 41 -185 41 -202 0 -29 -3 -33 -27
-33 -29 0 -390 71 -808 159 -264 56 -359 71 -375 61 -7 -5 -8 -33 0 -96 32
-271 33 -295 22 -306 -23 -23 -278 74 -532 203 -810 411 -1303 971 -1495 1700
-44 168 -80 382 -96 566 -15 181 -7 649 15 833 75 633 257 1287 457 1643 107
190 308 457 343 457 6 0 38 -22 71 -48z m-1329 -1058 l39 -19 -3 -152 -3 -152
32 -63 c24 -47 60 -90 145 -173 63 -61 114 -115 114 -120 0 -23 -49 -287 -54
-292 -7 -7 -47 24 -181 142 -60 53 -133 113 -161 132 l-52 34 -83 -11 c-46 -6
-126 -20 -178 -31 -123 -25 -202 -25 -225 0 -29 32 -57 120 -62 200 l-6 76 34
32 c24 24 49 36 88 43 75 14 152 54 191 97 17 20 53 82 79 138 62 133 81 149
176 143 41 -3 87 -13 110 -24z m5594 -377 c36 -17 48 -30 59 -62 16 -46 9
-120 -13 -151 -13 -18 -15 -18 -50 1 -51 28 -71 13 -71 -52 1 -75 57 -191 153
-315 46 -60 62 -117 48 -173 -10 -38 -97 -127 -151 -154 -25 -12 -76 -27 -113
-33 -66 -10 -71 -9 -207 38 -120 40 -152 47 -220 48 -44 0 -98 -6 -120 -13
-22 -8 -140 -63 -263 -122 -122 -60 -224 -109 -227 -109 -14 0 1 54 52 192 68
180 83 198 233 279 154 82 217 126 312 217 90 87 101 101 209 285 66 113 87
133 159 148 56 12 160 1 210 -24z m-1312 -2323 c98 -37 143 -33 236 23 120 71
212 71 271 1 18 -21 25 -42 25 -69 0 -49 -9 -67 -75 -149 -66 -82 -80 -110
-101 -200 -23 -101 -43 -120 -129 -120 -78 0 -96 14 -119 90 -32 108 -64 138
-281 262 l-130 75 -3 117 -3 116 123 -61 c68 -34 151 -72 186 -85z m-3813 -60
c25 -46 45 -88 45 -94 0 -5 -28 -28 -62 -52 -84 -56 -156 -124 -178 -168 -10
-19 -23 -59 -29 -88 -22 -107 -60 -142 -148 -142 -93 1 -161 52 -179 135 -16
75 -80 152 -161 194 -64 32 -88 66 -88 120 0 81 73 161 148 161 13 0 69 -14
123 -31 85 -26 110 -30 178 -26 71 3 88 9 175 54 114 60 108 62 176 -63z"/>
<path d="M2529 5077 c-112 -32 -201 -145 -244 -312 -20 -78 -38 -270 -29 -319
13 -80 59 -153 115 -181 67 -35 173 -7 223 58 37 48 99 188 138 308 29 92 33
117 33 214 0 99 -3 114 -25 153 -43 75 -120 104 -211 79z"/>
<path d="M2560 3699 c-68 -27 -102 -96 -81 -162 46 -137 377 -267 515 -202
129 62 80 234 -89 311 -115 53 -281 78 -345 53z"/>
</g>
</svg>
