<svg enable-background="new 0 0 1000 1000" version="1.1" viewBox="0 0 1e3 1e3" xml:space="preserve" xmlns="http://www.w3.org/2000/svg">
<path d="m370 939.26c-81.101-0.51215-161.72 0.73047-243.28-1.4383 6.8912-12.906 13.115-24.605 19.376-36.283 50.609-94.387 101.21-188.78 151.84-283.15 58.213-108.5 116.4-217.01 174.77-325.42 7.4845-13.901 15.574-27.475 22.385-41.74 0.57071-1.1953 1.3072-2.3183 2.0331-3.4316 5.8617-8.9907 15.754-9.2049 21.384 0.019425 4.4067 7.2203 7.9328 14.984 11.749 22.557 32.423 64.336 64.823 128.68 97.237 193.03 0.58337 1.158 1.259 2.2695 2.1172 3.8067 69.376-128.87 138.52-257.45 207.33-388.08-20.797 0-40.4 0.050773-60.002-0.007904-184.66-0.55273-369.31-0.70541-553.97 0.18134-7.9952 0.038383-15.988 0.56498-23.983 0.61887-3.5918 0.024215-4.5151 0.76465-3.2952 4.5742 6.5348 20.407 12.648 40.948 19.199 61.35 1.2863 4.0058 0.29791 5.7169-3.4396 6.7924-7.0251 2.0215-14.052 4.0627-20.977 6.3941-3.0957 1.0421-4.1288 0.32224-5.1124-2.7927-8.6577-27.419-17.527-54.772-26.331-82.145-2.3282-7.2383-4.6484-14.479-7.3836-23 7.0116 0 13.474 0.058854 19.935-0.008647 145.82-1.5234 291.65-1.0297 437.47-0.99145 83.828 0.021999 167.66 0.44917 251.48 0.72712 7.3298 0.024303 14.646 0.41081 21.966 0.9548 4.3686 0.32463 4.9119 1.136 2.7888 5.0869-16.687 31.054-33.074 62.269-49.723 93.343-67.654 126.27-135.95 252.2-202.83 378.88-36.731 69.569-71.119 140.37-106.57 210.62-2.3975 4.7501-4.5599 9.6579-7.3808 14.147-6.0677 9.6572-16.277 9.7299-21.826-0.19531-6.8087-12.18-12.857-24.787-19.142-37.256-31.156-61.814-62.282-123.64-93.42-185.47-0.52072-1.0339-1.0722-2.0524-1.647-3.15-1.8003 0.82172-2.1527 2.5164-2.8881 3.8893-66.341 123.85-132.67 247.71-199 371.57-2.8079 5.2434-2.8037 5.2863 3.2147 5.3102 202.16 0.8064 404.31 0.87811 606.47 0.028686 9.7864-0.041076 19.573-0.00531 29.979-0.00531-4.5516-14.899-8.8752-28.852-13.065-42.844-2.3845-7.9639-4.4177-16.034-6.8772-23.974-1.0369-3.3471-0.72858-5.2371 3.0748-6.1435 6.9462-1.6555 13.786-3.7559 20.727-5.4341 1.8677-0.45154 4.1101-1.2423 5.2026 1.9218 12.044 34.883 22.635 70.221 33.909 106.22-164.76 1.0674-328.88 1.1862-493.49 0.94153z" fill="#eceff4"/>
<path d="m461.31 609.22c-0.23556-0.27631-0.43994-0.56928-0.45389-0.74731-0.84335-2.9193-2.6405-5.2294-3.8025-8.1207-0.3205-0.15546-0.12826-0.37372-0.21448-0.25696-3.5334-7.6087-6.9604-15.344-11.588-22.874-0.24603-0.26776-0.45248-0.49048-0.46304-0.64197-0.27051-1.5374-0.85297-2.8073-1.7404-4.2302-0.31574-0.14917-0.094238-0.35254-0.20105-0.25-0.20322-0.99091-1.0209-1.7277-1.6584-2.8926-0.19119-0.24451-0.40616-0.45343-0.4299-0.60144-0.068543-0.84326-0.20886-1.5172-0.81461-2.2086-0.34228-0.044738-0.31259-0.11542-0.34998-0.12378 0.085541-0.65332-0.059692-1.2588-0.61047-1.9397-0.30231-0.090576 0.007721-0.32056-0.14606-0.20642-0.13113-1.0179-1.0082-1.7272-1.6492-2.8783-0.20062-0.23657-0.18372-0.242-0.19028-0.23468-1.632-5.9311-5.4787-10.84-8.0235-16.594-0.35901-0.074585-0.1091-0.2193-0.24524-0.17114-0.62308-1.2162-1.0965-2.4851-1.754-3.8883-0.32693-0.086426-0.021148-0.16168-0.17722-0.14136-0.15131-0.62549-0.25324-1.2476-0.88391-1.8397-0.31787-0.016907-0.10956-0.12232-0.22406-0.099488 0.094238-0.33905 0.019317-0.64374-0.51404-1.0765-0.21365-0.17743-0.16995-0.19372-0.18774-0.17798-4.3242-9.2724-8.8656-18.445-13.876-27.755-0.28693-0.22781-0.49124-0.42291-0.51117-0.56274-1.3296-3.687-2.4474-7.2693-1.882-11.481 0.15295-0.34872 0.26444-0.25616 0.19748-0.28381 2.7488-5.0287 5.4189-10.103 7.8367-15.708 0.16894-0.31879 0.24152-0.25781 0.19492-0.26645 0.33176-0.23032 0.6181-0.53766 0.6788-1.2244-0.13345-0.29352-0.071258-0.60065 0.048828-0.70132 4.1425-6.693 7.3769-13.69 10.781-21.003 0.1171-0.34341 0.46854-0.073608 0.30267-0.22043 1.9192-2.4729 2.8571-5.3648 4.0195-8.5478 0.19208-0.30698 0.22906-0.2753 0.2052-0.27908 1.8449-2.1596 2.6931-4.815 3.8077-7.7236 0.19467-0.28839 0.21436-0.26642 0.20093-0.27066 0.83368-0.68561 1.2451-1.642 1.6503-2.925 0.016938-0.31198 0.35803-0.21512 0.19074-0.27524 2.6671-3.3605 3.488-7.7182 5.7789-11.68 0.032867-0.35846 0.38409-0.26987 0.20929-0.32284 6.9488-12.878 13.28-26.105 19.866-39.613 0.11243-0.35248 0.2796-0.21301 0.18478-0.26651 2.3111-3.5925 4.0095-7.4937 5.8385-11.727 0.12768-0.33386 0.25897-0.21906 0.18103-0.25821 1.3612-1.333 1.5836-3.3216 2.6257-5.174-0.029328-0.34854 0.018005-0.63345 0.12598-0.72937 1.7101-1.5622 2.0432-3.6918 3.0722-5.8467 0.12659-0.32282 0.25967-0.21405 0.1817-0.25021 3.4586-6.3413 6.7474-12.771 9.8415-19.707 0.15698-0.32803 0.24759-0.2482 0.19064-0.26825 2.621-4.2491 4.3878-8.9372 6.8658-13.665 0.19809-0.298 0.2085-0.28491 0.20126-0.28754 0.25879-0.24017 0.51154-0.49112 0.67181-1.0104-0.07901-0.25485 0.13724-0.20468 0.040649-0.25937 2.4483-3.8099 4.1846-7.9657 6.0708-12.455 0.1817-0.31726 0.22641-0.28134 0.19928-0.28961 0.77133-0.73022 0.93524-1.8107 1.5524-2.9762 0.072631-0.30011 0.32138-0.078888 0.20166-0.18735 1.257-0.35257 0.59168-1.534 1.0455-2.5803 0.16885-0.30112 0.22699-0.24814 0.19214-0.26581 0.63376-0.53012 1.0858-1.2048 1.3943-1.976 0.6142-1.5354 1.6684-2.5064 3.382-2.1434 1.5496 0.32822 1.9559 1.7886 2.0188 3.0581 0.079499 1.6046 0.50259 2.8284 2.2718 3.6768 0.32587 0.071625 0.040528 0.22537 0.19238 0.1687 3.0162 7.3952 7.2308 14.189 10.616 21.379 5.9939 12.731 12.485 25.223 18.838 37.76 7.8713 15.533 15.173 31.368 23.929 46.862 0.46613 0.53479 0.63837 0.81705 0.79205 1.3849 5.1746 12.228 11.34 23.703 17.533 35.497 0.32636 0.1727 0.13764 0.39056 0.22376 0.27582 0.39758 2.0029 2.092 3.5364 2.8343 5.7207 0.32959 0.10944 0.014587 0.19034 0.17377 0.16119 3.045 7.1284 6.6237 13.946 10.568 20.972 0.24573 0.26639 0.47382 0.48953 0.4953 0.64764 0.24731 1.5608 0.83716 2.8329 1.7696 4.2108 0.33325 0.10922 0.022217 0.16971 0.17926 0.15277 0.16998 0.61948 0.28082 1.2341 0.87537 1.8578 0.31091 0.047638-0.032348 0.14142 0.14252 0.10956 0.029297 0.33469 0.12006 0.63974 0.61981 1.0668 0.20471 0.17517 0.44562 0.40927 0.49707 0.56918 0.19519 1.2644 0.91394 2.1303 1.5015 3.3845 0.21417 0.24496 0.42609 0.47165 0.45886 0.62329-0.05304 0.55353 0.049988 0.90534 0.54016 1.4001 0.22528 0.18591 0.18042 0.20096 0.198 0.18463 2.5784 4.3224 2.2799 8.5219-0.65405 13.016-0.056823 0.42062-0.12335 0.74353-0.23523 0.86468-2.3047 3.5354-4.2441 7.0801-5.7206 11.25-0.066956 0.35266-0.14648 0.66266-0.25763 0.77771-0.3941 0.3407-0.65137 0.59265-0.81171 1.1274 0.074524 0.25977-0.099304 0.19141-0.031311 0.25543-1.4558 1.8285-2.5816 3.7878-3.109 6.4337-0.20221 0.29443-0.1944 0.29724-0.19708 0.2934-2.9051 4.9515-5.8467 9.8875-7.7852 15.715-0.20172 0.2995-0.2121 0.28857-0.20612 0.2923-1.9011 2.6392-3.6935 5.3365-4.6615 8.8589-0.07489 0.33997-0.30328 0.1236-0.18518 0.23016-0.63635 0.26972-0.64996 0.92212-0.86713 1.7837-0.072754 0.29559-0.27966 0.12347-0.17114 0.20325-1.2265 0.8053-1.0756 2.3395-1.8542 3.7421-0.13342 0.30164-0.25592 0.2102-0.18555 0.24005-3.3509 6.0687-7.0686 11.953-9.7089 18.805-0.18311 0.31177-0.36292 0.19409-0.26465 0.23755-5.5034 9.6295-10.544 19.518-15.815 29.692-0.13348 0.33856-0.2901 0.21844-0.20618 0.2702-1.4565 2.03-2.4503 4.3108-3.6464 6.8683-0.13177 0.31574-0.44574 0.2179-0.28638 0.25549-1.4676 2.0356-2.3629 4.4614-3.7177 6.9877-0.022461 0.35614-0.083862 0.64221-0.18664 0.74634-1.7303 2.3618-3.2272 4.686-4.0698 7.725-0.26947 0.44409-0.31378 0.62085-0.52252 1.0161-0.43994 0.8172-0.75012 1.3963-1.2994 2.2178-0.16077 0.28693-0.36829 0.17346-0.26221 0.22296-1.5484 1.436-1.9628 3.4767-2.8835 5.6333-0.19263 0.28137-0.21179 0.26044-0.20001 0.26697-1.0743 1.4035-1.4478 3.187-2.629 4.9063-0.14447 0.29553-0.39105 0.16486-0.26282 0.21899-2.669 3.874-4.2701 8.3561-6.7654 12.73-0.067993 0.34943-0.36261 0.23084-0.21796 0.29858-2.4373 4.3089-4.7952 8.6667-6.9392 13.537-0.21277 0.28998-0.19739 0.30231-0.20435 0.2951-3.2624 5.511-6.9188 10.829-8.8549 17.385-0.26126 0.24701-0.39633 0.62183-0.54623 0.75293-3.3869 4.4878-3.8941 4.5101-6.619 0.33081-0.38742-0.067688-0.2836-0.1358-0.34534-0.14233-0.26013-1.0357-0.82941-1.9092-1.4722-3.062-0.22024-0.21759-0.15295-0.25098-0.18332-0.22797-0.38062-0.46039-0.44031-1.0502-0.82819-1.7985-0.20541-0.20349-0.14114-0.22082-0.16681-0.19946-0.95465-1.7996-1.7128-3.6988-2.8176-5.7916-0.23904-0.24298-0.44635-0.45056-0.4646-0.59607-1.7433-3.8287-3.2638-7.6098-5.5596-11.39-0.26697-0.24219-0.47018-0.42828-0.48822-0.56494-0.10199-1.302-0.88409-2.1832-1.5343-3.4391-0.25958-0.21521-0.46112-0.39392-0.48355-0.52673 0.002838-1.3285-1.3613-1.9816-1.4969-3.4354-0.26907-0.21576-0.1507-0.25122-0.19867-0.21228-2.92-8.2815-8.0034-15.526-11.81-23.756-0.28757-0.22455-0.1427-0.28143-0.20499-0.23474-0.62225-1.1465-0.9313-2.4427-1.8437-3.7784-0.28067-0.17194-0.10406-0.28021-0.18152-0.21143-3.7504-7.531-6.8687-15.407-11.587-22.88z" fill="#88c0d0"/>
</svg>
