<svg version="1.1" viewBox="0 0 1000 1000" xml:space="preserve" xmlns="http://www.w3.org/2000/svg">
<rect width="1000" height="1000" rx="1000" fill="#fff" />
<g transform="matrix(1.65 0 0 1.65 499.96 499.22)" fill="#000">
<g transform="matrix(.1333 0 0 -.1333 -.0728 -.0696)"><path transform="translate(-6e3 -3140)" d="m5718 5315c-410-56-808-230-1113-487-417-351-677-805-772-1343-13-77-17-157-18-345 0-213 3-262 24-375 52-292 162-569 328-825 154-237 395-478 633-633 371-240 762-357 1200-357s829 117 1200 357c238 155 479 396 633 633 166 256 276 533 328 825 21 113 24 162 24 375-1 261-9 341-60 543-66 262-211 559-383 787-74 98-234 263-347 358-246 207-605 385-912 452-228 50-549 64-765 35zm537-250c114-19 262-66 388-121 330-145 578-368 655-587 62-181 70-431 21-679-7-32-16-58-20-58-15 0-219 80-389 152-375 159-661 312-959 510-284 189-680 480-688 504-6 17 159 137 257 188 104 54 187 82 305 101 108 17 299 13 430-10zm-890-501c99-80 249-200 333-267l152-122-7-70c-14-122-8-334 11-409 38-158 119-271 236-330 170-85 331-65 490 60 62 48 162 166 188 222 9 18 21 31 26 29l246-82c129-42 237-79 239-81 13-11-118-353-194-506-58-117-63-124-206-344-121-185-179-299-179-353 0-43 16-39 64 16l41 47 6-30c4-16 7-69 8-117 1-109 27-351 47-435 7-35 14-70 14-78 0-18-32-18-94 1-32 10-53 12-60 5-9-9 4-74 59-297 12-50 19-96 15-103-7-11-45-4-639 121-100 21-146 27-151 20-3-6 2-66 12-133 10-68 14-126 9-131-16-16-206 58-381 149-361 188-631 434-794 725-242 430-282 1058-110 1757 75 308 159 519 273 688 60 89 146 194 160 194 4 0 88-65 186-146zm-995-576c26-17 28-32 17-120-10-72-9-79 16-130 18-37 47-71 97-113 45-38 70-67 70-80 0-25-29-187-34-192-2-2-54 41-115 97-61 55-123 103-137 106-13 3-83-6-154-21-145-30-162-27-186 30-7 18-17 58-20 88-6 51-4 58 19 81 15 15 37 26 52 26 36 0 95 26 127 57 15 15 39 57 54 95 33 86 52 101 122 94 29-4 61-12 72-18zm3632-244c32-16 43-49 35-101-8-48-21-60-42-39-19 18-24 19-44 7-22-14-8-78 34-153 21-36 48-78 61-92 50-53 48-111-7-166-43-42-82-61-143-67-43-4-64 0-126 26-83 36-158 43-226 21-21-7-101-44-176-83-76-39-140-68-143-66-2 3 8 39 23 80 16 41 36 95 46 121 18 48 45 68 210 153 21 11 71 50 111 87 55 51 82 87 119 157 27 49 57 98 67 107 38 34 142 38 201 8zm-947-1469c131-69 177-73 245-22 58 42 124 45 164 8 44-41 35-88-31-159-33-36-50-69-58-117-12-69-29-85-84-85s-64 8-80 66c-17 63-40 85-160 153l-111 63v74c0 41 2 74 5 74 2 0 52-25 110-55zm-2391-74 35-69-41-27c-83-55-126-103-133-148-15-97-47-125-126-112-53 9-84 40-92 92-8 47-52 98-104 119-18 8-40 26-49 40-34 51 22 144 87 144 16 0 52-9 81-21 78-31 166-24 233 19 28 17 56 32 62 32 7 0 28-31 47-69z"/></g>
<g transform="matrix(.1333 0 0 -.1333 -85.384 -100.54)"><path transform="translate(-5359.7 -3894)" d="m5355 4156c-92-34-152-152-162-318-5-81-3-100 15-141 38-85 136-102 198-34 32 35 83 153 109 254 46 176-28 286-160 239z"/></g>
<g transform="matrix(.1333 0 0 -.1333 -63.149 -.6635)"><path transform="translate(-5526.4 -3144.9)" d="m5411 3272c-66-11-97-71-67-129 30-59 166-125 263-127 129-3 155 123 41 197-61 39-179 69-237 59z"/></g>
</g>
</svg>
