<?xml version="1.0" standalone="no"?>
<!DOCTYPE svg PUBLIC "-//W3C//DTD SVG 20010904//EN"
 "http://www.w3.org/TR/2001/REC-SVG-20010904/DTD/svg10.dtd">
<svg version="1.0" xmlns="http://www.w3.org/2000/svg"
 width="700.000000pt" height="700.000000pt" viewBox="0 0 700.000000 700.000000"
 preserveAspectRatio="xMidYMid meet">
<metadata>
Created by potrace 1.14, written by Peter Selinger 2001-2017
</metadata>
<g transform="translate(0.000000,700.000000) scale(0.100000,-0.100000)"
fill="#000000" stroke="none">
<path d="M3350 6294 c-575 -40 -1077 -226 -1535 -568 -158 -119 -422 -383
-541 -541 -311 -416 -491 -863 -555 -1380 -18 -146 -16 -493 5 -650 42 -324
122 -588 271 -890 412 -839 1194 -1405 2130 -1542 147 -21 569 -24 715 -5 503
66 961 254 1363 559 140 106 422 390 529 533 292 389 468 809 545 1300 25 163
25 606 0 770 -84 544 -289 1002 -631 1412 -250 299 -557 540 -911 713 -304
150 -569 231 -884 269 -125 16 -402 27 -501 20z m471 -318 c388 -70 805 -274
1068 -523 209 -196 299 -377 332 -663 20 -177 -2 -515 -42 -638 -13 -40 9 -45
-269 65 -551 219 -992 441 -1383 695 -410 267 -967 675 -967 708 0 31 206 178
355 253 104 52 225 92 339 112 105 19 445 13 567 -9z m-931 -809 c255 -205
414 -339 411 -348 -11 -42 -12 -426 -2 -513 20 -175 96 -334 204 -432 58 -53
185 -116 265 -133 219 -46 441 58 632 295 33 42 70 93 80 115 13 25 27 39 39
39 17 0 609 -197 620 -207 8 -6 -38 -139 -111 -327 -97 -245 -210 -465 -359
-696 -208 -321 -269 -438 -269 -515 0 -49 18 -45 78 19 40 42 52 50 57 37 4
-9 10 -93 15 -187 11 -201 33 -401 60 -540 12 -62 15 -103 9 -109 -6 -5 -32
-4 -72 5 -34 7 -75 15 -91 18 l-29 5 6 -55 c3 -30 23 -130 45 -224 22 -93 43
-186 47 -206 6 -38 6 -38 -28 -38 -32 0 -165 26 -662 129 -132 27 -258 51
-280 53 -50 4 -52 -2 -31 -154 9 -62 16 -130 16 -151 l0 -39 -37 7 c-61 11
-257 92 -413 171 -291 148 -499 295 -706 499 -256 253 -403 487 -507 810 -81
251 -118 518 -118 845 0 432 61 832 198 1290 96 322 199 536 363 750 84 109
118 142 139 130 9 -5 203 -159 431 -343z m-1522 -562 c71 -22 76 -34 62 -160
-12 -103 -12 -103 16 -161 20 -43 53 -83 121 -148 83 -80 93 -94 93 -126 0
-43 -30 -212 -39 -222 -4 -5 -54 33 -111 83 -58 51 -129 110 -158 132 -52 39
-53 39 -115 33 -34 -4 -104 -16 -156 -27 -113 -23 -159 -24 -188 -4 -25 17
-48 84 -58 169 -7 54 -6 57 28 91 24 24 44 35 64 35 39 0 145 52 171 84 11 15
30 47 41 72 12 24 30 64 42 89 34 73 86 90 187 60z m4689 -320 c41 -17 53 -42
53 -107 0 -82 -22 -102 -72 -66 -13 9 -20 9 -33 -2 -39 -32 7 -162 105 -296
77 -106 77 -155 -1 -233 -53 -53 -102 -74 -181 -79 -57 -4 -81 1 -174 33 -98
34 -115 37 -189 33 -80 -4 -87 -7 -280 -101 -108 -53 -201 -97 -206 -97 -13 0
-2 39 47 170 53 139 72 159 235 245 98 52 127 73 214 160 79 79 112 120 153
195 29 52 61 106 71 119 36 47 173 61 258 26z m-1214 -1884 c178 -91 226 -96
329 -30 86 56 182 49 224 -16 26 -40 12 -88 -49 -169 -67 -88 -72 -97 -87
-169 -16 -81 -35 -97 -110 -97 -67 0 -78 9 -101 90 -19 64 -74 113 -219 196
-110 63 -125 75 -128 100 -5 41 8 154 18 154 4 0 60 -27 123 -59z m-3095 -38
c11 -16 33 -56 50 -89 l31 -61 -70 -48 c-85 -58 -136 -116 -149 -169 -31 -123
-60 -156 -132 -156 -78 1 -136 48 -152 127 -11 50 -59 107 -120 141 -30 18
-63 43 -72 57 -34 52 3 149 67 175 33 14 61 10 179 -25 87 -26 167 -16 259 33
42 22 79 41 83 41 4 1 15 -11 26 -26z"/>
<path d="M2653 4799 c-110 -54 -175 -198 -189 -414 -6 -95 -5 -106 18 -157 60
-131 200 -141 276 -20 105 165 160 420 114 525 -37 84 -128 111 -219 66z"/>
<path d="M2733 3670 c-40 -9 -60 -25 -79 -62 -37 -71 17 -145 152 -210 100
-48 216 -63 272 -34 95 49 74 173 -41 240 -82 47 -240 82 -304 66z"/>
</g>
</svg>
